<svg width="20" height="20" viewBox="0 0 20 20" fill="none" xmlns="http://www.w3.org/2000/svg">
<g clip-path="url(#clip0_1169_1743)">
<path d="M8.09375 4.96824H11.9062C11.8257 4.61764 11.7374 4.28694 11.6413 3.97963C11.1912 2.53912 10.6086 1.64746 9.99913 1.64746C9.38969 1.64746 8.80794 2.53912 8.35692 3.97963C8.26256 4.28608 8.17426 4.61677 8.09375 4.96824Z" fill="#F4F4F5"/>
<path d="M7.9769 14.4762H12.024C12.2603 13.2512 12.4023 11.8176 12.4179 10.2793H7.58301C7.59859 11.8176 7.74056 13.2512 7.9769 14.4762Z" fill="#F4F4F5"/>
<path d="M5.93577 4.05638C5.73579 4.34033 5.55053 4.64505 5.38086 4.96795H7.52344C7.61434 4.55589 7.71562 4.16979 7.82729 3.81486C8.087 2.9838 8.40557 2.30942 8.76743 1.83936C7.6784 2.1813 6.70277 2.96648 5.93577 4.05638Z" fill="#F4F4F5"/>
<path d="M4.21289 10.2793C4.24838 11.8202 4.57302 13.2555 5.11321 14.4762H7.40988C7.17874 13.24 7.04023 11.8081 7.02551 10.2793H4.21289Z" fill="#F4F4F5"/>
<path d="M5.11321 5.5249C4.57302 6.74552 4.24838 8.18083 4.21289 9.72176H7.02551C7.04023 8.19295 7.17874 6.76111 7.40988 5.5249H5.11321Z" fill="#F4F4F5"/>
<path d="M12.024 5.5249H7.9769C7.74056 6.74985 7.59859 8.18343 7.58301 9.72176H12.4179C12.4023 8.18343 12.2603 6.74985 12.024 5.5249Z" fill="#F4F4F5"/>
<path d="M12.4764 4.96833H14.619C14.4493 4.64543 14.2641 4.34157 14.0641 4.05676C13.2971 2.96686 12.3206 2.18168 11.2324 1.83887C11.5943 2.30894 11.9129 2.98331 12.1726 3.81437C12.2842 4.17017 12.3855 4.55626 12.4764 4.96833Z" fill="#F4F4F5"/>
<path d="M16.3439 9.72176H18.348C18.2978 8.18083 17.8294 6.74466 17.0538 5.5249H15.4912C16.0037 6.76457 16.3102 8.19555 16.3439 9.72176Z" fill="#F4F4F5"/>
<path d="M12.5898 14.4762H14.8874C15.4276 13.2555 15.7522 11.8202 15.7877 10.2793H12.9751C12.9595 11.8081 12.821 13.2391 12.5898 14.4762Z" fill="#F4F4F5"/>
<path d="M14.518 3.7373C14.7837 4.1156 15.0253 4.52767 15.24 4.9683H16.6658C16.432 4.65925 16.1784 4.36752 15.9057 4.09396C15.1266 3.31484 14.1933 2.68981 13.1562 2.26562C13.6575 2.66817 14.1154 3.16421 14.518 3.7373Z" fill="#F4F4F5"/>
<path d="M14.8874 5.5249H12.5898C12.821 6.76197 12.9595 8.19295 12.9742 9.72176H15.7868C15.7522 8.17997 15.4267 6.74552 14.8874 5.5249Z" fill="#F4F4F5"/>
<path d="M14.0641 15.9434C14.2632 15.6595 14.4493 15.3548 14.619 15.0327H12.4764C12.3855 15.4448 12.2842 15.8309 12.1726 16.1858C11.9129 17.0169 11.5943 17.6912 11.2324 18.1613C12.3215 17.8194 13.298 17.0342 14.0641 15.9434Z" fill="#F4F4F5"/>
<path d="M14.518 16.2638C14.1154 16.8369 13.6575 17.333 13.1562 17.7355C14.1933 17.3122 15.1257 16.6863 15.9057 15.9072C16.1784 15.6336 16.4329 15.3419 16.6658 15.0337H15.24C15.0261 15.4735 14.7846 15.8855 14.518 16.2638Z" fill="#F4F4F5"/>
<path d="M11.9071 15.0327H8.09375C8.17426 15.3833 8.26256 15.714 8.35865 16.0205C8.80881 17.4618 9.39142 18.3526 10.0009 18.3526C10.6103 18.3526 11.192 17.461 11.6431 16.0205C11.7383 15.714 11.8266 15.3833 11.9071 15.0327Z" fill="#F4F4F5"/>
<path d="M15.4912 14.4762H17.0538C17.8294 13.2555 18.2978 11.8202 18.348 10.2793H16.3439C16.3102 11.8055 16.0037 13.2356 15.4912 14.4762Z" fill="#F4F4F5"/>
<path d="M3.65555 10.2793H1.65234C1.70255 11.8202 2.17089 13.2564 2.94655 14.4762H4.50912C3.99576 13.2356 3.68931 11.8055 3.65555 10.2793Z" fill="#F4F4F5"/>
<path d="M5.48176 3.7373C5.8843 3.16421 6.34225 2.66817 6.84349 2.26562C5.80639 2.68895 4.87404 3.31484 4.09406 4.09396C3.82137 4.36752 3.56685 4.65925 3.33398 4.9683H4.75977C4.97446 4.52767 5.21599 4.1156 5.48176 3.7373Z" fill="#F4F4F5"/>
<path d="M7.52344 15.0327H5.38086C5.55053 15.3556 5.73579 15.6595 5.93577 15.9434C6.70277 17.0342 7.6784 17.8194 8.76657 18.1613C8.40471 17.6912 8.08614 17.0169 7.82643 16.1858C7.71562 15.8309 7.61434 15.4448 7.52344 15.0327Z" fill="#F4F4F5"/>
<path d="M4.50825 5.5249H2.94655C2.17003 6.74552 1.70255 8.18083 1.65234 9.72176H3.65641C3.68931 8.19555 3.99576 6.76457 4.50825 5.5249Z" fill="#F4F4F5"/>
<path d="M5.48165 16.2637C5.21588 15.8854 4.97435 15.4734 4.75966 15.0327H3.33301C3.56674 15.3418 3.82039 15.6335 4.09308 15.9062C4.8722 16.6853 5.80541 17.3112 6.84251 17.7345C6.34214 17.332 5.88419 16.8359 5.48165 16.2637Z" fill="#F4F4F5"/>
<path d="M19.4217 10.0004H18.8426C18.8426 12.4443 17.854 14.6509 16.2524 16.2524C14.65 17.8531 12.4434 18.8417 9.99957 18.8426C7.55573 18.8426 5.34909 17.854 3.7467 16.2524C2.14604 14.65 1.15743 12.4434 1.15656 10.0004C1.15656 7.55659 2.14518 5.34996 3.7467 3.74757C5.34909 2.14604 7.55573 1.15829 9.99957 1.15743C12.4434 1.15743 14.65 2.14604 16.2524 3.74757C17.8531 5.34996 18.8417 7.55659 18.8426 10.0004H19.4217H20.0009C20 4.47647 15.5235 0 10.0004 0C4.47647 0 0 4.47647 0 10.0004C0 15.5235 4.47647 20 10.0004 20C15.5235 20 20 15.5235 20.0009 10.0004H19.4217Z" fill="#F4F4F5"/>
</g>
<defs>
<clipPath id="clip0_1169_1743">
<rect width="20" height="20" fill="white"/>
</clipPath>
</defs>
</svg>
