<svg width="218" height="24" viewBox="0 0 218 24" fill="none" xmlns="http://www.w3.org/2000/svg">
<path d="M27.048 0L14.7154 12.1026L27.048 24H16.8728L9.91761 16.8205L7.50261 19.1795V24H0V0H7.50261V9.50427L16.8728 0H27.048Z" fill="white"/>
<path d="M27.6465 0H52.6015V6.66667H35.1491V8.78632H51.5067V15.1795H35.1491V17.3333H52.6015V24H27.6465V0Z" fill="white"/>
<path d="M81.6686 0L69.336 12.1026L81.6686 24H71.4934L64.5382 16.8205L62.1232 19.1795V24H54.6206V0H62.1232V9.50427L71.4934 0H81.6686Z" fill="white"/>
<path d="M110.473 0L98.1399 12.1026L110.473 24H100.297L93.3421 16.8205L90.9271 19.1795V24H83.4245V0H90.9271V9.50427L100.297 0H110.473Z" fill="white"/>
<path d="M133.055 0.0683752L143.198 24H134.504L132.798 19.9658H121.624L119.918 24H111.288L121.399 0.0683752H133.055ZM124.297 13.0598H130.125L127.195 6.76923L124.297 13.0598Z" fill="white"/>
<path d="M144.497 24V0H152V24H144.497Z" fill="white"/>
<path d="M179.475 0H182.964V9.94503H179.475V0ZM176.844 20.0169H186.139V22.7315H176.844V20.0169ZM173.412 3.2981H189.256V6.03806H173.412V3.2981ZM174.212 8.82875H188.599V11.5941H174.212V8.82875ZM175.099 13.7252H187.941V23.7717H184.652V16.4397H178.245V23.797H175.099V13.7252ZM166.719 0.0253699L169.751 0.964059C168.578 2.94292 167.234 5.20085 166.118 6.59619L163.802 5.75899C164.831 4.23679 166.061 1.80127 166.719 0.0253699ZM170.151 3.01903L173.04 4.08457C170.923 7.00212 168.121 10.5285 165.918 12.685L163.83 11.7463C166.033 9.463 168.635 5.73362 170.151 3.01903ZM162.315 6.03806L163.916 3.93235C165.461 5.09937 167.234 6.72304 167.978 7.83932L166.233 10.2241C165.518 9.00634 163.773 7.25581 162.315 6.03806ZM169.436 9.13319L171.867 8.1945C173.011 9.89429 174.155 12.1015 174.527 13.5729L171.924 14.6385C171.581 13.1924 170.523 10.8837 169.436 9.13319ZM162.286 11.1882C164.946 11.1121 168.864 10.9598 172.697 10.7822L172.668 13.1924C169.093 13.4461 165.375 13.6744 162.572 13.8266L162.286 11.1882ZM169.951 15.5011L172.468 14.7653C173.211 16.2875 173.984 18.2664 174.327 19.5603L171.638 20.4228C171.381 19.1036 170.637 17.0486 169.951 15.5011ZM163.516 14.9175L166.347 15.3488C166.061 17.7844 165.432 20.3214 164.603 21.945C164.002 21.6152 162.715 21.0825 162 20.8288C162.829 19.3319 163.287 17.074 163.516 14.9175ZM166.834 12.5328H169.894V23.8478H166.834V12.5328Z" fill="white"/>
<path d="M197.722 7.40803V9.26004H211.222V7.40803H197.722ZM197.722 3.32347V5.12474H211.222V3.32347H197.722ZM194.29 0.862579H214.797V11.6956H194.29V0.862579ZM208.39 10.0973C210.278 12.3806 213.996 14.2579 218 15.1459C217.228 15.7548 216.198 16.9471 215.712 17.7336C211.508 16.5159 207.79 14.0803 205.502 11.0359L208.39 10.0973ZM200.582 10.0719L203.614 11.1121C201.297 14.055 197.436 16.5412 193.375 17.8351C192.86 17.074 191.83 15.9323 191.087 15.3235C194.948 14.3594 198.695 12.3552 200.582 10.0719ZM198.552 14.7146H202.098V16.4651C202.098 18.9006 201.269 22.148 195.549 24C195.091 23.2389 193.947 22.0973 193.203 21.5137C197.98 20.1438 198.552 17.9873 198.552 16.3636V14.7146ZM202.727 2.10571H206.188V10.4778H202.727V2.10571ZM207.275 14.7653H210.85V23.7463H207.275V14.7653Z" fill="white"/>
</svg>
