<svg xmlns="http://www.w3.org/2000/svg" width="282" height="13" viewBox="0 0 282 13" fill="none">
  <path d="M17.4679 2.12719L9.34359 10.0825C8.18649 11.2151 6.66011 11.8386 5.04562 11.8386H2.78844L10.2947 4.29599C11.6876 2.89785 13.5379 2.12719 15.5087 2.12719H17.4679ZM20.3082 0.967285H15.5087C13.2464 0.967285 11.0773 1.86943 9.47835 3.47716L0 12.9998H5.04562C6.95295 12.9998 8.78383 12.2513 10.1495 10.9143L20.3082 0.967285ZM30.5523 2.12719L22.428 10.0825C21.2709 11.2151 19.7445 11.8386 18.13 11.8386H15.8728L23.3791 4.29729C24.772 2.89786 26.6236 2.12719 28.5931 2.12719H30.5523ZM33.3926 0.967285H28.5931C26.3308 0.967285 24.1617 1.86943 22.5627 3.47716L13.0844 12.9998H18.13C20.0373 12.9998 21.8682 12.2513 23.2339 10.9143L33.3926 0.967285ZM43.6367 2.12719L35.5124 10.0825C34.3553 11.2151 32.8289 11.8386 31.2144 11.8386H28.9585L36.4648 4.29599C37.8577 2.89785 39.7093 2.12719 41.6788 2.12719H43.6367ZM46.477 0.967285H41.6775C39.4152 0.967285 37.2461 1.86943 35.6471 3.47716L26.1688 12.9998H31.2144C33.1217 12.9998 34.9526 12.2513 36.3183 10.9143L46.477 0.967285ZM56.7211 2.12719L48.5968 10.0825C47.441 11.2151 45.9146 11.8386 44.2988 11.8386H42.0429L49.5492 4.29599C50.9421 2.89785 52.7924 2.12719 54.7619 2.12719H56.7211ZM59.5614 0.967285H54.7619C52.5009 0.967285 50.3305 1.86943 48.7315 3.47716L39.2532 12.9998H44.2988C46.2061 12.9998 48.037 12.2513 49.4027 10.9143L59.5614 0.967285ZM69.8055 2.12719L61.6812 10.0825C60.5241 11.2151 58.9977 11.8386 57.3832 11.8386H55.1273L62.6336 4.29599C64.0265 2.89785 65.8768 2.12719 67.8463 2.12719H69.8055ZM72.6458 0.967285H67.8463C65.5853 0.967285 63.4162 1.86943 61.8159 3.47716L52.3376 12.9998H57.3832C59.2905 12.9998 61.1214 12.2513 62.4871 10.9143L72.6458 0.967285ZM82.8899 2.12719L74.7656 10.0825C73.6098 11.2151 72.0834 11.8386 70.4676 11.8386H68.2117L75.7179 4.29599C77.1109 2.89785 78.9612 2.12719 80.932 2.12719H82.8899ZM85.7301 0.967285H80.932C78.6696 0.967285 76.5006 1.86943 74.9016 3.47716L65.4233 12.9998H70.4689C72.3762 12.9998 74.2071 12.2513 75.5728 10.9143L85.7301 0.967285ZM95.9756 2.12719L87.8513 10.0825C86.6942 11.2151 85.1678 11.8386 83.5533 11.8386H81.2974L88.8036 4.29599C90.1966 2.89785 92.0482 2.12719 94.0177 2.12719H95.9756ZM98.8158 0.967285H94.0164C91.7541 0.967285 89.585 1.86943 87.986 3.47716L78.5077 12.9998H83.5533C85.4606 12.9998 87.2915 12.2513 88.6572 10.9143L98.8158 0.967285ZM109.06 2.12719L100.936 10.0825C99.7786 11.2151 98.2522 11.8386 96.6377 11.8386H94.3818L101.888 4.29599C103.281 2.89785 105.133 2.12719 107.102 2.12719H109.06ZM111.9 0.967285H107.101C104.838 0.967285 102.669 1.86943 101.07 3.47716L91.5921 12.9998H96.6377C98.545 12.9998 100.376 12.2513 101.742 10.9143L111.9 0.967285ZM122.144 2.12719L114.02 10.0825C112.864 11.2151 111.338 11.8386 109.722 11.8386H107.466L114.972 4.29599C116.365 2.89785 118.216 2.12719 120.185 2.12719H122.144ZM124.985 0.967285H120.185C117.924 0.967285 115.754 1.86943 114.155 3.47716L104.676 12.9998H109.722C111.629 12.9998 113.46 12.2513 114.826 10.9143L124.985 0.967285ZM135.229 2.12719L127.104 10.0825C125.947 11.2151 124.422 11.8386 122.806 11.8386H120.551L128.057 4.29599C129.45 2.89785 131.3 2.12719 133.27 2.12719H135.229ZM138.069 0.967285H133.27C131.007 0.967285 128.839 1.86943 127.239 3.47716L117.761 12.9998H122.806C124.714 12.9998 126.545 12.2513 127.91 10.9143L138.069 0.967285ZM148.313 2.12719L140.189 10.0825C139.033 11.2151 137.507 11.8386 135.891 11.8386H133.635L141.141 4.29599C142.534 2.89785 144.384 2.12719 146.355 2.12719H148.313ZM151.153 0.967285H146.354C144.092 0.967285 141.923 1.86943 140.324 3.47716L130.845 12.9998H135.891C137.798 12.9998 139.629 12.2513 140.995 10.9143L151.153 0.967285ZM161.398 2.12719L153.273 10.0825C152.116 11.2151 150.59 11.8386 148.975 11.8386H146.719L154.226 4.29599C155.619 2.89785 157.47 2.12719 159.438 2.12719H161.398ZM164.239 0.967285H159.44C157.179 0.967285 155.01 1.86943 153.409 3.47716L143.931 12.9998H148.977C150.884 12.9998 152.715 12.2513 154.081 10.9143L164.239 0.967285ZM174.482 2.12719L166.358 10.0825C165.201 11.2151 163.674 11.8386 162.06 11.8386H159.804L167.31 4.29599C168.703 2.89785 170.555 2.12719 172.524 2.12719H174.482ZM177.324 0.967285H172.524C170.262 0.967285 168.093 1.86943 166.494 3.47716L157.015 12.9998H162.061C163.968 12.9998 165.799 12.2513 167.165 10.9143L177.324 0.967285ZM187.568 2.12719L179.443 10.0825C178.286 11.2151 176.761 11.8386 175.145 11.8386H172.889L180.396 4.29599C181.789 2.89785 183.639 2.12719 185.608 2.12719H187.568ZM190.408 0.967285H185.608C183.346 0.967285 181.177 1.86943 179.578 3.47716L170.1 12.9998H175.145C177.053 12.9998 178.884 12.2513 180.249 10.9143L190.408 0.967285ZM200.652 2.12719L192.528 10.0825C191.371 11.2151 189.846 11.8386 188.23 11.8386H185.974L193.48 4.29599C194.873 2.89785 196.723 2.12719 198.693 2.12719H200.652ZM203.492 0.967285H198.693C196.431 0.967285 194.261 1.86943 192.663 3.47716L183.184 12.9998H188.23C190.137 12.9998 191.968 12.2513 193.334 10.9143L203.492 0.967285ZM213.736 2.12719L205.612 10.0825C204.456 11.2151 202.93 11.8386 201.314 11.8386H199.058L206.565 4.29599C207.957 2.89785 209.808 2.12719 211.777 2.12719H213.736ZM216.577 0.967285H211.777C209.516 0.967285 207.346 1.86943 205.747 3.47716L196.269 12.9998H201.314C203.222 12.9998 205.052 12.2513 206.418 10.9143L216.577 0.967285ZM226.821 2.12719L218.697 10.0825C217.539 11.2151 216.013 11.8386 214.399 11.8386H212.143L219.649 4.29599C221.042 2.89785 222.893 2.12719 224.862 2.12719H226.821ZM229.661 0.967285H224.862C222.601 0.967285 220.432 1.86943 218.831 3.47716L209.353 12.9998H214.399C216.305 12.9998 218.137 12.2513 219.503 10.9143L229.661 0.967285ZM239.905 2.12719L231.781 10.0825C230.624 11.2151 229.097 11.8386 227.483 11.8386H225.227L232.733 4.29599C234.126 2.89785 235.978 2.12719 237.947 2.12719H239.905ZM242.746 0.967285H237.946C235.684 0.967285 233.515 1.86943 231.916 3.47716L222.437 12.9998H227.483C229.39 12.9998 231.221 12.2513 232.587 10.9143L242.746 0.967285ZM252.99 2.12719L244.865 10.0825C243.708 11.2151 242.183 11.8386 240.567 11.8386H238.311L245.818 4.29599C247.211 2.89785 249.061 2.12719 251.03 2.12719H252.99ZM255.831 0.967285H251.032C248.769 0.967285 246.6 1.86943 245.001 3.47716L235.523 12.9998H240.569C242.476 12.9998 244.307 12.2513 245.673 10.9143L255.831 0.967285ZM266.075 2.12719L257.951 10.0825C256.794 11.2151 255.269 11.8386 253.653 11.8386H251.397L258.903 4.29599C260.296 2.89785 262.147 2.12719 264.116 2.12719H266.075ZM268.916 0.967285H264.116C261.854 0.967285 259.685 1.86943 258.086 3.47716L248.607 12.9998H253.653C255.56 12.9998 257.391 12.2513 258.757 10.9143L268.916 0.967285ZM279.16 2.12719L271.035 10.0825C269.878 11.2151 268.352 11.8386 266.737 11.8386H264.482L271.988 4.29599C273.381 2.89785 275.231 2.12719 277.201 2.12719H279.16ZM282 0.967285H277.201C274.94 0.967285 272.769 1.86943 271.17 3.47716L261.692 12.9998H266.737C268.645 12.9998 270.476 12.2513 271.841 10.9143L282 0.967285Z" fill="black"/>
</svg>