<svg xmlns="http://www.w3.org/2000/svg" width="282" height="13" viewBox="0 0 282 13" fill="none">
  <path d="M10.1495 9.94706C8.78383 11.284 6.95165 12.0325 5.04562 12.0325H0L9.47835 2.50987C11.0773 0.902148 13.2464 0 15.5087 0H20.3082L10.1495 9.94706ZM33.3926 0H28.5931C26.3308 0 24.1617 0.902148 22.5627 2.50987L13.0844 12.0325H18.13C20.0373 12.0325 21.8682 11.284 23.2339 9.94706L33.3926 0ZM46.477 0H41.6775C39.4152 0 37.2461 0.902148 35.6471 2.50987L26.1688 12.0325H31.2144C33.1217 12.0325 34.9526 11.284 36.3183 9.94706L46.477 0ZM59.5614 0H54.7619C52.4996 0 50.3305 0.902148 48.7315 2.50987L39.2532 12.0325H44.2988C46.2061 12.0325 48.037 11.284 49.4027 9.94706L59.5614 0ZM72.6458 0H67.8463C65.5853 0 63.4149 0.902148 61.8159 2.50987L52.3376 12.0325H57.3832C59.2905 12.0325 61.1214 11.284 62.4871 9.94706L72.6458 0ZM85.7301 0H80.932C78.6709 0 76.5019 0.902148 74.9016 2.50987L65.4233 12.0325H70.4689C72.3762 12.0325 74.2071 11.284 75.5728 9.94706L85.7301 0ZM98.8158 0H94.0164C91.7541 0 89.585 0.902148 87.986 2.50987L78.5077 12.0325H83.5533C85.4606 12.0325 87.2915 11.284 88.6572 9.94706L98.8158 0ZM111.9 0H107.101C104.838 0 102.669 0.902148 101.07 2.50987L91.5921 12.0325H96.6377C98.545 12.0325 100.376 11.284 101.742 9.94706L111.9 0ZM124.985 0H120.185C117.923 0 115.754 0.902148 114.155 2.50987L104.676 12.0325H109.722C111.629 12.0325 113.46 11.284 114.826 9.94706L124.985 0ZM138.069 0H133.27C131.009 0 128.838 0.902148 127.239 2.50987L117.761 12.0325H122.806C124.714 12.0325 126.545 11.284 127.91 9.94706L138.069 0ZM151.153 0H146.354C144.093 0 141.924 0.902148 140.324 2.50987L130.845 12.0325H135.891C137.798 12.0325 139.629 11.284 140.995 9.94706L151.153 0ZM164.239 0H159.44C157.177 0 155.008 0.902148 153.409 2.50987L143.931 12.0325H148.977C150.884 12.0325 152.715 11.284 154.081 9.94706L164.239 0ZM177.324 0H172.524C170.262 0 168.093 0.902148 166.494 2.50987L157.015 12.0325H162.061C163.968 12.0325 165.799 11.284 167.165 9.94706L177.324 0ZM190.408 0H185.608C183.346 0 181.177 0.902148 179.578 2.50987L170.1 12.0325H175.145C177.053 12.0325 178.884 11.284 180.249 9.94706L190.408 0ZM203.492 0H198.693C196.432 0 194.261 0.902148 192.663 2.50987L183.184 12.0325H188.23C190.137 12.0325 191.968 11.284 193.334 9.94706L203.492 0ZM216.577 0H211.777C209.516 0 207.347 0.902148 205.747 2.50987L196.269 12.0325H201.314C203.222 12.0325 205.052 11.284 206.418 9.94706L216.577 0ZM229.661 0H224.862C222.599 0 220.43 0.902148 218.831 2.50987L209.353 12.0325H214.399C216.306 12.0325 218.137 11.284 219.503 9.94706L229.661 0ZM242.746 0H237.946C235.684 0 233.515 0.902148 231.916 2.50987L222.437 12.0325H227.483C229.39 12.0325 231.221 11.284 232.587 9.94706L242.746 0ZM255.831 0H251.032C248.769 0 246.6 0.902148 245.001 2.50987L235.523 12.0325H240.569C242.476 12.0325 244.307 11.284 245.673 9.94706L255.831 0ZM268.916 0H264.116C261.854 0 259.685 0.902148 258.086 2.50987L248.607 12.0325H253.653C255.56 12.0325 257.391 11.284 258.757 9.94706L268.916 0ZM282 0H277.201C274.94 0 272.769 0.902148 271.17 2.50987L261.692 12.0325H266.737C268.645 12.0325 270.476 11.284 271.841 9.94706L282 0Z" fill="black"/>
</svg>