<svg width="48" height="58" viewBox="0 0 48 58" fill="none" xmlns="http://www.w3.org/2000/svg">
<path d="M47.4784 14.9657L24.5877 0.174829C24.2277 -0.0582763 23.7723 -0.0582763 23.4123 0.174829L0.514233 14.9657C0.191001 15.1688 0 15.5297 0 15.9207V42.0812C0 42.4647 0.191001 42.8256 0.514233 43.0361L23.4123 57.8271C23.596 57.9398 23.7943 58 24 58C24.2057 58 24.4114 57.9398 24.5877 57.8271L47.4858 43.0361C47.809 42.8331 48 42.4722 48 42.0812V15.9132C48 15.5297 47.809 15.1688 47.4858 14.9582L47.4784 14.9657ZM21.73 3.92707L11.5776 21.5679L11.8788 21.7559L2.79155 16.1613L21.73 3.92707ZM2.20386 41.457V19.5L21.495 53.9169L2.20386 41.457ZM23.0817 52.8266L3.15152 18.1691L11.7906 23.7486L23.0891 41.3518V52.8266H23.0817ZM23.0817 38.0657L14.8981 25.7638L23.0817 31.05V38.0732V38.0657ZM23.0817 28.6663L13.135 22.5379L23.0817 4.53616V28.6588V28.6663ZM45.1423 16.1237L43.8053 16.9885L36.4077 21.5453L26.2626 3.92707L45.1423 16.1162V16.1237ZM24.9109 4.53616L34.843 22.5003L24.9109 28.6137V4.53616ZM24.9109 30.9598L33.1901 25.6134L24.9109 38.0582V30.9598ZM24.9109 41.3442L36.2094 23.741L44.7383 18.154L41.0725 24.7336L24.9183 52.819V41.3442H24.9109ZM45.7888 41.4495L26.4757 53.9244L45.7888 19.297V41.457V41.4495Z" fill="#373231"/>
</svg>
