<svg width="24" height="24" viewBox="0 0 24 24" fill="none" xmlns="http://www.w3.org/2000/svg">
<path d="M21.2674 20.9971H2.73435C2.37709 20.9971 2.04697 20.8065 1.86834 20.4971C1.68972 20.1877 1.68972 19.8065 1.86835 19.4971L11.1343 3.49714C11.3131 3.18825 11.643 2.99805 11.9998 2.99805C12.3567 2.99805 12.6866 3.18825 12.8653 3.49714L22.1313 19.4971C22.3099 19.8064 22.31 20.1874 22.1316 20.4967C21.9532 20.806 21.6234 20.9968 21.2663 20.9971H21.2674ZM11.0013 15.9971V17.9971H11.9343H11.9993H12.0643H12.9993V15.9971H11.0013ZM11.0013 8.99714V13.9971H13.0013V8.99714H11.0013Z" fill="#F4BF4F"/>
</svg>
